<svg width="19" height="18" viewBox="0 0 19 18" fill="none" xmlns="http://www.w3.org/2000/svg">
<path d="M17.8954 2.78838H4.47138L3.69837 0.970383C3.6594 0.878565 3.59935 0.797216 3.52308 0.732934C3.44681 0.668651 3.35646 0.62324 3.25937 0.60038L0.769374 0.0143819C0.60671 -0.0208361 0.436722 0.00921482 0.295993 0.0980687C0.155264 0.186923 0.0550432 0.327477 0.0169018 0.48948C-0.0212396 0.651482 0.00574599 0.821981 0.0920513 0.964287C0.178357 1.10659 0.317084 1.20933 0.478373 1.25038L2.65538 1.76238L8.22937 14.8624C8.05381 15.1732 7.96038 15.5236 7.9579 15.8806C7.95543 16.2376 8.04399 16.5893 8.21522 16.9025C8.38646 17.2157 8.63471 17.4801 8.93654 17.6708C9.23837 17.8614 9.5838 17.9719 9.94022 17.9919C10.2966 18.0119 10.6523 17.9407 10.9735 17.785C11.2948 17.6294 11.5711 17.3944 11.7762 17.1023C11.9814 16.8102 12.1088 16.4706 12.1463 16.1156C12.1837 15.7606 12.1301 15.4019 11.9904 15.0734H14.2774C14.1012 15.4888 14.0635 15.95 14.1699 16.3886C14.2763 16.8272 14.5212 17.2198 14.8682 17.5083C15.2153 17.7968 15.646 17.9658 16.0967 17.9903C16.5473 18.0148 16.9938 17.8935 17.3701 17.6443C17.7464 17.3951 18.0324 17.0314 18.1857 16.6069C18.3391 16.1825 18.3516 15.7199 18.2215 15.2878C18.0913 14.8557 17.8254 14.477 17.4632 14.2078C17.101 13.9386 16.6617 13.7933 16.2104 13.7934L9.15937 13.8034L8.28938 11.7594H17.8964C17.9798 11.7594 18.0623 11.743 18.1394 11.711C18.2164 11.6791 18.2864 11.6324 18.3454 11.5734C18.4044 11.5144 18.4511 11.4444 18.483 11.3674C18.5149 11.2903 18.5314 11.2078 18.5314 11.1244V3.42338C18.5314 3.3399 18.5149 3.25725 18.4829 3.18015C18.451 3.10304 18.4041 3.03299 18.345 2.97401C18.286 2.91504 18.2158 2.86828 18.1387 2.83643C18.0615 2.80457 17.9788 2.78825 17.8954 2.78838ZM16.2114 15.0684C16.3755 15.0684 16.536 15.1171 16.6725 15.2083C16.809 15.2995 16.9154 15.4291 16.9782 15.5807C17.041 15.7324 17.0574 15.8993 17.0254 16.0603C16.9934 16.2213 16.9144 16.3692 16.7983 16.4853C16.6822 16.6014 16.5343 16.6804 16.3733 16.7124C16.2123 16.7445 16.0454 16.728 15.8937 16.6652C15.7421 16.6024 15.6125 16.496 15.5213 16.3595C15.4301 16.223 15.3814 16.0625 15.3814 15.8984C15.3814 15.6782 15.4688 15.4671 15.6245 15.3115C15.7801 15.1558 15.9912 15.0684 16.2114 15.0684ZM10.0604 15.0684C10.2245 15.0684 10.385 15.1171 10.5215 15.2083C10.658 15.2995 10.7644 15.4291 10.8272 15.5807C10.89 15.7324 10.9065 15.8993 10.8744 16.0603C10.8424 16.2213 10.7634 16.3692 10.6473 16.4853C10.5312 16.6014 10.3833 16.6804 10.2223 16.7124C10.0613 16.7445 9.89441 16.728 9.74275 16.6652C9.59108 16.6024 9.46146 16.496 9.37026 16.3595C9.27906 16.223 9.23037 16.0625 9.23037 15.8984C9.23037 15.6782 9.31782 15.4671 9.47348 15.3115C9.62913 15.1558 9.84024 15.0684 10.0604 15.0684ZM17.2604 6.64038H13.0514C12.883 6.64038 12.7214 6.70728 12.6024 6.82637C12.4833 6.94546 12.4164 7.10697 12.4164 7.27538C12.4164 7.4438 12.4833 7.60531 12.6024 7.7244C12.7214 7.84348 12.883 7.91038 13.0514 7.91038H17.2604V10.4924H7.74938L5.01138 4.05638H17.2604V6.64038Z" fill="white"/>
</svg>
