<svg width="101" height="101" viewBox="0 0 101 101" fill="none" xmlns="http://www.w3.org/2000/svg">
<path d="M50.5 101C78.3904 101 101 78.3904 101 50.5C101 22.6096 78.3904 0 50.5 0C22.6096 0 0 22.6096 0 50.5C0 78.3904 22.6096 101 50.5 101Z" fill="#2E3746"/>
<path d="M43.3324 64.0759C43.5565 64.0756 43.7784 64.0302 43.9845 63.9422C44.1907 63.8542 44.3771 63.7256 44.5324 63.5639L68.5484 38.8149C68.7 38.653 68.8179 38.4626 68.8952 38.2548C68.9725 38.0469 69.0076 37.8257 68.9986 37.6041C68.9896 37.3825 68.9366 37.1649 68.8427 36.964C68.7488 36.7631 68.6159 36.5829 68.4516 36.4338C68.2874 36.2848 68.0952 36.1699 67.8861 36.0959C67.6771 36.0219 67.4554 35.9902 67.2339 36.0026C67.0125 36.0151 66.7958 36.0715 66.5964 36.1686C66.3969 36.2656 66.2188 36.4014 66.0724 36.5679L43.3384 60.0479L34.4584 51.1679C34.1418 50.869 33.7212 50.7054 33.2858 50.7116C32.8505 50.7179 32.4348 50.8936 32.1269 51.2015C31.8191 51.5093 31.6433 51.9251 31.6371 52.3604C31.6308 52.7957 31.7945 53.2163 32.0934 53.5329L42.1244 63.5649C42.2797 63.7266 42.466 63.8552 42.6722 63.9432C42.8784 64.0312 43.1002 64.0766 43.3244 64.0769L43.3324 64.0759Z" fill="#F9C705" stroke="#F9C705" stroke-width="3" stroke-linecap="round" stroke-linejoin="round"/>
</svg>
