<svg width="18" height="18" viewBox="0 0 18 18" fill="none" xmlns="http://www.w3.org/2000/svg">
<path d="M16.7272 12.939C15.8724 12.2406 14.9221 11.6681 13.9052 11.239C13.1514 10.8948 12.4267 10.4902 11.7382 10.029C12.8593 8.75683 13.5235 7.14664 13.6252 5.454C13.7035 4.32598 13.5147 3.19538 13.0742 2.154C12.5772 1.172 11.4672 0 9.00018 0C6.53318 0 5.42318 1.172 4.92718 2.156C4.48598 3.19721 4.29685 4.32788 4.37518 5.456C4.47614 7.14882 5.14037 8.75924 6.26218 10.031C5.57355 10.4925 4.84848 10.8972 4.09418 11.241C3.07728 11.6702 2.12699 12.2427 1.27218 12.941C0.448648 13.9352 -0.00131943 15.186 0.000176357 16.477C-0.00287395 16.6759 0.0336722 16.8734 0.107687 17.0581C0.181703 17.2427 0.291708 17.4108 0.431301 17.5526C0.570894 17.6943 0.737285 17.8068 0.920789 17.8837C1.10429 17.9605 1.30124 18 1.50018 18H16.5002C16.6991 18 16.8961 17.9605 17.0796 17.8837C17.2631 17.8068 17.4295 17.6943 17.5691 17.5526C17.7086 17.4108 17.8186 17.2427 17.8927 17.0581C17.9667 16.8734 18.0032 16.6759 18.0002 16.477C18.0017 15.1853 17.5514 13.9337 16.7272 12.939ZM16.7672 16.763C16.7322 16.7986 16.6905 16.8268 16.6445 16.846C16.5984 16.8652 16.5491 16.8751 16.4992 16.875H1.50018C1.45064 16.8748 1.40163 16.8648 1.35597 16.8456C1.31031 16.8264 1.26892 16.7983 1.23418 16.763C1.16405 16.6911 1.12522 16.5944 1.12618 16.494C1.12499 15.4951 1.45681 14.5242 2.06918 13.735C2.84553 13.1333 3.69621 12.6342 4.60018 12.25C5.46318 11.8777 6.28082 11.408 7.03718 10.85L7.79618 10.132L7.13718 9.322C6.17995 8.25 5.60437 6.89139 5.50018 5.458C5.42729 4.5056 5.57477 3.5492 5.93118 2.663C6.23582 2.13419 6.68909 1.70652 7.2347 1.43309C7.7803 1.15967 8.39421 1.05254 9.00018 1.125C9.60613 1.05267 10.22 1.15986 10.7656 1.43327C11.3111 1.70668 11.7644 2.13428 12.0692 2.663C12.4262 3.55077 12.5737 4.50894 12.5002 5.463C12.3971 6.89656 11.8221 8.25563 10.8652 9.328L10.2062 10.138L10.9652 10.855C11.7217 11.4128 12.5393 11.8825 13.4022 12.255C14.3061 12.6388 15.1565 13.1379 15.9322 13.74C16.5521 14.5251 16.8848 15.4987 16.8752 16.499C16.8754 16.5978 16.8365 16.6927 16.7672 16.763Z" fill="white"/>
</svg>
